<svg width="512" height="512" xmlns="http://www.w3.org/2000/svg"><path fill="#fff" d="M0 0h512v512H0z" style="stroke-width:9.65473"/><path d="M0 251.622h512v8.756H0z" fill="#22263f" style="stroke-width:9.65473"/><path d="M260.378 0v512h-8.756V0z" fill="#22263f" style="stroke-width:9.65473"/><path d="M68.51 43.759a2.22 2.22 0 0 0-1.583.647L44.412 66.92a2.22 2.22 0 0 0 0 3.158l55.727 55.727-55.727 55.727a2.22 2.22 0 0 0 0 3.157l22.515 22.515a2.238 2.238 0 0 0 3.157 0l55.727-55.727 55.727 55.727a2.238 2.238 0 0 0 3.157 0l22.515-22.515a2.22 2.22 0 0 0 0-3.157l-55.727-55.737 55.727-55.727a2.22 2.22 0 0 0 0-3.157l-22.515-22.496a2.22 2.22 0 0 0-3.157 0l-55.727 55.718-55.727-55.727a2.22 2.22 0 0 0-1.574-.647zm260.369 260.369a2.22 2.22 0 0 0-1.574.656L304.79 327.3a2.22 2.22 0 0 0 0 3.157l55.727 55.727-55.727 55.727a2.22 2.22 0 0 0 0 3.148l22.515 22.524a2.238 2.238 0 0 0 3.157 0l55.727-55.717 55.727 55.727a2.226 2.226 0 0 0 3.148 0l22.524-22.525a2.22 2.22 0 0 0 0-3.147l-55.727-55.737 55.727-55.727a2.22 2.22 0 0 0 0-3.157l-22.524-22.515a2.22 2.22 0 0 0-3.148 0l-55.727 55.727-55.727-55.727a2.22 2.22 0 0 0-1.583-.656z" fill="#6145b2" style="stroke-width:9.65473"/><path style="line-height:normal;font-variant-ligatures:normal;font-variant-position:normal;font-variant-caps:normal;font-variant-numeric:normal;font-variant-alternates:normal;font-variant-east-asian:normal;font-feature-settings:normal;font-variation-settings:normal;text-indent:0;text-align:start;text-decoration-line:none;text-decoration-style:solid;text-decoration-color:#000;text-transform:none;text-orientation:mixed;white-space:normal;shape-padding:0;shape-margin:0;inline-size:0;isolation:auto;mix-blend-mode:normal;solid-color:#000;solid-opacity:1;stroke-width:9.65473" d="M386.19 41.67c-46.266 0-84.142 37.875-84.142 84.14 0 46.266 37.876 84.151 84.141 84.151 46.266 0 84.141-37.885 84.141-84.15 0-46.266-37.875-84.141-84.14-84.141zm0 35.018a48.872 48.872 0 0 1 49.142 49.123 48.892 48.892 0 0 1-49.143 49.142 48.872 48.872 0 0 1-49.123-49.142 48.853 48.853 0 0 1 49.123-49.123zm-260.38 225.35c-46.265 0-84.14 37.886-84.14 84.151 0 46.266 37.875 84.141 84.14 84.141 46.266 0 84.151-37.875 84.151-84.14 0-46.266-37.885-84.151-84.15-84.151zm0 35.028a48.872 48.872 0 0 1 49.143 49.123 48.892 48.892 0 0 1-49.142 49.143 48.872 48.872 0 0 1-49.123-49.143 48.853 48.853 0 0 1 49.123-49.123z" color="#000" font-weight="400" font-family="sans-serif" overflow="visible" fill="#1ea382"/></svg>