<svg xmlns="http://www.w3.org/2000/svg" width="200.433" height="200.433" viewBox="0 0 53.031 53.031"><path fill="#fff" d="M0 0h53.031v53.031H0z"/><path d="M0 26.062h53.031v.907H0z" fill="#22263f"/><path d="M26.969 0v53.031h-.907V0z" fill="#22263f"/><path d="M7.096 4.533a.23.23 0 00-.164.067L4.6 6.932a.23.23 0 000 .327l5.772 5.772L4.6 18.803a.23.23 0 000 .327l2.332 2.332c.09.09.236.09.327 0l5.772-5.772 5.772 5.772c.09.09.236.09.327 0l2.332-2.332a.23.23 0 000-.327L15.69 13.03l5.772-5.772a.23.23 0 000-.327l-2.332-2.33a.23.23 0 00-.327 0l-5.772 5.771L7.259 4.6a.23.23 0 00-.163-.067zm26.968 26.968a.23.23 0 00-.163.068l-2.332 2.332a.23.23 0 000 .327L37.341 40l-5.772 5.772a.23.23 0 000 .326l2.332 2.333c.09.09.236.09.327 0L40 42.66l5.772 5.772c.09.09.236.09.326 0l2.333-2.333a.23.23 0 000-.326L42.659 40l5.772-5.772a.23.23 0 000-.327l-2.333-2.332a.23.23 0 00-.326 0L40 37.341l-5.772-5.772a.23.23 0 00-.164-.068z" fill="#6145b2"/><path style="line-height:normal;font-variant-ligatures:normal;font-variant-position:normal;font-variant-caps:normal;font-variant-numeric:normal;font-variant-alternates:normal;font-variant-east-asian:normal;font-feature-settings:normal;font-variation-settings:normal;text-indent:0;text-align:start;text-decoration-line:none;text-decoration-style:solid;text-decoration-color:#000;text-transform:none;text-orientation:mixed;white-space:normal;shape-padding:0;shape-margin:0;inline-size:0;isolation:auto;mix-blend-mode:normal;solid-color:#000;solid-opacity:1" d="M40 4.316c-4.792 0-8.715 3.923-8.715 8.715s3.923 8.716 8.715 8.716 8.715-3.924 8.715-8.716S44.792 4.316 40 4.316zm0 3.627a5.062 5.062 0 015.09 5.088 5.064 5.064 0 01-5.09 5.09 5.062 5.062 0 01-5.088-5.09A5.06 5.06 0 0140 7.943zM13.031 31.284c-4.792 0-8.715 3.924-8.715 8.716s3.923 8.715 8.715 8.715 8.716-3.923 8.716-8.715-3.924-8.716-8.716-8.716zm0 3.628A5.062 5.062 0 0118.121 40a5.064 5.064 0 01-5.09 5.09A5.062 5.062 0 017.943 40a5.06 5.06 0 015.088-5.088z" color="#000" font-weight="400" font-family="sans-serif" overflow="visible" fill="#1ea382"/></svg>